<svg xmlns="http://www.w3.org/2000/svg" viewBox="0 0 640 420" role="img" aria-labelledby="title desc">
  <title id="title">Feria rural digital</title>
  <desc id="desc">Ilustracion con puestos de feria, productos agricolas y personas interactuando.</desc>
  <rect width="640" height="420" fill="#f4f7ed"/>
  <circle cx="540" cy="70" r="50" fill="#ffd166" opacity="0.9"/>
  <rect x="60" y="150" width="520" height="170" rx="18" fill="#2d6a4f"/>
  <rect x="90" y="115" width="140" height="75" fill="#f77f00"/>
  <rect x="250" y="115" width="140" height="75" fill="#e63946"/>
  <rect x="410" y="115" width="140" height="75" fill="#457b9d"/>
  <rect x="95" y="190" width="130" height="120" fill="#fff3b0"/>
  <rect x="255" y="190" width="130" height="120" fill="#d8f3dc"/>
  <rect x="415" y="190" width="130" height="120" fill="#caf0f8"/>
  <circle cx="150" cy="250" r="28" fill="#e76f51"/>
  <circle cx="188" cy="252" r="24" fill="#ffb703"/>
  <rect x="275" y="235" width="90" height="18" rx="9" fill="#52b788"/>
  <rect x="275" y="265" width="75" height="18" rx="9" fill="#52b788"/>
  <circle cx="462" cy="245" r="24" fill="#023047"/>
  <circle cx="502" cy="250" r="24" fill="#219ebc"/>
  <rect x="120" y="330" width="400" height="18" rx="9" fill="#6c757d" opacity="0.35"/>
</svg>
